Coordinates
version=1
nRows=14
nColumns=40
inDegrees=yes

Units are S.I. units (second, meters, Newtons, ...)
Angles are in degrees.

endheader
time	pelvis_tilt	pelvis_list	pelvis_rotation	pelvis_tx	pelvis_ty	pelvis_tz	hip_flexion_r	hip_adduction_r	hip_rotation_r	knee_angle_r	knee_angle_r_beta	ankle_angle_r	subtalar_angle_r	mtp_angle_r	hip_flexion_l	hip_adduction_l	hip_rotation_l	knee_angle_l	knee_angle_l_beta	ankle_angle_l	subtalar_angle_l	mtp_angle_l	lumbar_extension	lumbar_bending	lumbar_rotation	arm_flex_r	arm_add_r	arm_rot_r	elbow_flex_r	pro_sup_r	wrist_flex_r	wrist_dev_r	arm_flex_l	arm_add_l	arm_rot_l	elbow_flex_l	pro_sup_l	wrist_flex_l	wrist_dev_l
      0.66000000	     -2.70943598	     -1.23733273	      5.61207101	     -0.50277885	      0.89577492	      1.11669576	      9.59778993	      3.13354997	    -11.96490394	    -22.70712577	     -0.39631411	     11.05806885	     -4.10577841	      2.58226919	     26.53684272	      5.50967046	      5.78875576	    -58.12215765	     -1.01442302	      9.31461337	     19.08520603	     18.94229634	     -3.59240086	      1.38896832	     -3.28042108	     -0.51078184	     -9.48537728	    -20.04183389	     31.29711604	     89.95437384	      0.00000000	      0.00000000	     -5.75118170	      7.61909544	     23.94736805	     28.81280490	     89.95437384	      0.00000000	      0.00000000
      0.67000000	     -2.78440377	     -1.11495406	      5.53373247	     -0.49622463	      0.89553215	      1.11685242	      9.01923331	      3.12523880	    -11.68975478	    -22.36503234	     -0.39034345	     11.56460762	     -4.02514028	      2.43552400	     27.13977048	      5.29353993	      5.87318131	    -56.53797436	     -0.98677381	     10.14098904	     19.04896621	     19.34600880	     -3.55019326	      1.23597461	     -3.12720616	     -0.57693629	     -9.59725155	    -19.87596749	     32.03318178	     89.95437384	      0.00000000	      0.00000000	     -5.84059892	      7.59764672	     24.17645967	     28.23593244	     89.95437384	      0.00000000	      0.00000000
      0.68000000	     -2.94951501	     -1.17851357	      5.41326187	     -0.48986603	      0.89493954	      1.11717905	      8.70735331	      3.24064697	    -11.78340751	    -22.28656390	     -0.38897392	     11.74471274	     -3.97875431	      2.34605922	     27.91551491	      5.42743539	      6.10498504	    -54.95415463	     -0.95913094	     10.30029017	     19.04820758	     19.39682992	     -3.40591777	      1.26256855	     -3.02462312	     -0.47793380	     -9.67227272	    -19.73441726	     32.54552184	     89.95437384	      0.00000000	      0.00000000	     -6.16921921	      7.57235242	     24.22147011	     28.06775139	     89.95437384	      0.00000000	      0.00000000
      0.69000000	     -2.76418244	     -0.92148195	      5.25675441	     -0.48305067	      0.89509909	      1.11713400	      7.80859163	      3.00097599	    -11.76345377	    -21.97413480	     -0.38352100	     12.02526365	     -3.32024964	      1.40202511	     28.02664476	      5.20032671	      6.48973467	    -53.03099506	     -0.92556547	     10.86990686	     19.01499668	     22.87060304	     -3.68468172	      1.01258677	     -2.87078608	     -0.47748549	     -9.82111796	    -19.33264095	     33.25113741	     89.95437384	      0.00000000	      0.00000000	     -6.20609018	      7.48306163	     24.68486390	     27.47403404	     89.95437384	      0.00000000	      0.00000000
      0.70000000	     -2.99287439	     -1.06961902	      5.18128070	     -0.47656738	      0.89434217	      1.11728264	      7.52765480	      3.17174868	    -11.93747678	    -21.86023526	     -0.38153308	     12.22072300	     -3.29533411	      1.32945946	     28.81843138	      5.44024760	      6.78507104	    -51.26135849	     -0.89467948	     10.89043540	     18.98892522	     22.69901146	     -3.44233887	      1.13514537	     -2.80086223	     -0.38845859	     -9.91008839	    -19.19396859	     33.69690702	     89.95437384	      0.00000000	      0.00000000	     -6.52067947	      7.45750057	     24.67855062	     27.26455156	     89.95437384	      0.00000000	      0.00000000
      0.71000000	     -3.20507767	     -1.19754896	      5.11283784	     -0.47003618	      0.89356851	      1.11728988	      7.19439213	      3.32569693	    -12.02966862	    -21.70256839	     -0.37878127	     12.46026249	     -3.23012848	      1.24955375	     29.53583300	      5.63438733	      7.08887779	    -49.40633392	     -0.86230320	     10.76575244	     18.95746998	     22.55998274	     -3.22737474	      1.25202018	     -2.74029053	     -0.32570075	    -10.01932266	    -19.03421339	     34.16080933	     89.95437384	      0.00000000	      0.00000000	     -6.78605831	      7.42023565	     24.70348939	     26.99029411	     89.95437384	      0.00000000	      0.00000000
      0.72000000	     -2.95146075	     -0.85065352	      4.81686726	     -0.46330775	      0.89391360	      1.11708902	      6.13651185	      3.02990255	    -11.67004625	    -21.20794908	     -0.37014854	     12.82024263	     -2.75841026	      0.99708241	     29.32727784	      5.36763561	      7.59092659	    -47.00148169	     -0.82033061	     10.17998249	     18.87534737	     22.50570308	     -3.62413270	      0.92668823	     -2.30583370	     -0.36706859	    -10.24755346	    -18.49300024	     34.74435570	     89.95437384	      0.00000000	      0.00000000	     -6.53039444	      7.34709459	     25.18882433	     26.12332848	     89.95437384	      0.00000000	      0.00000000
      0.73000000	     -3.21560379	     -1.03663219	      4.76843592	     -0.45686142	      0.89299975	      1.11695723	      5.89988448	      3.22141250	    -11.84607417	    -21.10164432	     -0.36829317	     12.95938810	     -2.64443536	      0.91194331	     30.07688901	      5.63359233	      7.92478884	    -45.09053371	     -0.78697827	     10.13214734	     18.72174426	     22.30078494	     -3.35357760	      1.09819776	     -2.26960587	     -0.26664159	    -10.34900324	    -18.38052549	     35.10852085	     89.95437384	      0.00000000	      0.00000000	     -6.84152607	      7.30729681	     25.18846795	     26.01078688	     89.95437384	      0.00000000	      0.00000000
      0.74000000	     -3.05160859	     -0.62664123	      4.49825772	     -0.45017273	      0.89309208	      1.11661544	      5.10801931	      2.74484085	    -11.75687957	    -20.94380289	     -0.36553832	     13.26476228	     -1.86796943	      0.46642198	     29.87283984	      5.28246623	      8.48390341	    -42.52925682	     -0.74227556	      9.55783032	     18.53699576	     21.70392391	     -3.66446165	      0.67917327	     -2.02363045	     -0.13092013	    -10.46263224	    -18.02659694	     35.46720492	     89.95437384	      0.00000000	      0.00000000	     -6.79982959	      7.23443542	     25.72088970	     25.47328464	     89.95437384	      0.00000000	      0.00000000
      0.75000000	     -3.25907788	     -0.51915480	      4.37223907	     -0.44375702	      0.89246540	      1.11600841	      4.79312236	      2.48063858	    -12.21167540	    -20.84415363	     -0.36379911	     13.57811054	     -0.90158753	     -0.30864079	     30.28051121	      5.11012814	      8.62736631	    -40.26371799	     -0.70273445	      9.01885936	     18.24538883	     20.54708819	     -3.50026010	      0.57469315	     -1.84321203	     -0.02079347	    -10.65570000	    -17.72212851	     35.63562000	     89.95437384	      0.00000000	      0.00000000	     -6.84396672	      7.15603319	     26.04360937	     25.12074053	     89.95437384	      0.00000000	      0.00000000
      0.76000000	     -3.60651977	     -0.70934736	      4.26369043	     -0.43736734	      0.89140131	      1.11573618	      4.68672502	      2.65007958	    -12.32880042	    -20.77204420	     -0.36254056	     13.68039263	     -0.79944524	     -0.40143997	     31.01966678	      5.34454529	      8.90070326	    -38.29062570	     -0.66829749	      8.77608173	     17.79821873	     20.28453333	     -3.15224394	      0.74740661	     -1.68176776	      0.05259861	    -10.80087017	    -17.54976398	     35.82863737	     89.95437384	      0.00000000	      0.00000000	     -7.06280906	      7.09153328	     26.03183784	     25.03359397	     89.95437384	      0.00000000	      0.00000000
      0.77000000	     -3.90795468	     -0.58215006	      4.08233173	     -0.43103202	      0.89061912	      1.11521742	      4.52460797	      2.47523918	    -12.07720482	    -20.74824300	     -0.36212515	     13.87194760	     -0.57029215	     -0.58535604	     31.47680904	      5.21690739	      9.21525182	    -36.04446838	     -0.62909465	      8.11165431	     17.09367729	     19.84854679	     -2.90190204	      0.59620320	     -1.49498268	      0.19904385	    -10.93161561	    -17.25263073	     35.90111177	     89.95437384	      0.00000000	      0.00000000	     -7.13994623	      7.05074202	     26.21663688	     24.70247231	     89.95437384	      0.00000000	      0.00000000
      0.78000000	     -4.14248510	     -0.78228295	      4.04825603	     -0.42472857	      0.88964832	      1.11472912	      4.30781583	      2.64780531	    -12.30436092	    -20.70162405	     -0.36131150	     14.05062650	     -0.57044984	     -0.64701549	     32.21834863	      5.48562919	      9.73711825	    -34.49861701	     -0.60211445	      8.15387627	     16.79582176	     19.65019540	     -2.71562792	      0.79042373	     -1.49186170	      0.38445169	    -11.00725992	    -17.16077730	     36.01724049	     89.95437384	      0.00000000	      0.00000000	     -7.29286447	      7.01621068	     26.23782453	     24.61034228	     89.95437384	      0.00000000	      0.00000000
      0.79000000	     -4.50555943	     -0.70261696	      3.72811977	     -0.41816939	      0.88880336	      1.11433288	      4.28387120	      2.49379461	    -12.06068389	    -20.81566435	     -0.36330188	     14.16279029	     -0.36103020	     -0.78712526	     32.55077972	      5.41046103	      9.84552930	    -32.20175169	     -0.56202659	      7.67351078	     15.45862439	     19.12609475	     -2.35300676	      0.65534816	     -1.11328988	      0.47505839	    -11.15356031	    -16.87809249	     35.93083804	     89.95437384	      0.00000000	      0.00000000	     -7.42263900	      6.93445838	     26.46114235	     24.49128136	     89.95437384	      0.00000000	      0.00000000
